<!--?xml version="1.0" encoding="utf-8"?-->
<!-- Generator: Adobe Illustrator 18.1.1, SVG Export Plug-In . SVG Version: 6.00 Build 0)  -->

<svg version="1.1" id="_x32_" xmlns="http://www.w3.org/2000/svg" xmlns:xlink="http://www.w3.org/1999/xlink" x="0px" y="0px" viewBox="0 0 512 512" style="width: 32px; height: 32px; opacity: 1;" xml:space="preserve">
<style type="text/css">
	.st0{fill:#4B4B4B;}
</style>
<g>
	<path class="st0" d="M100.21,96.593c-6.838-6.864-11.017-16.18-11.026-26.63c0.009-10.45,4.189-19.766,11.026-26.63
		c6.874-6.847,16.189-11.027,26.64-11.036H438.96V0.009L126.849,0C88.21,0.018,56.905,31.314,56.896,69.963v372.084
		c0.009,38.639,31.314,69.944,69.954,69.954h328.255V107.62H126.849C116.399,107.62,107.083,103.44,100.21,96.593z M165.281,139.916
		h257.536v339.787H165.281V139.916z" style="fill: rgb(75, 75, 75);"></path>
	<path class="st0" d="M143.749,56.125c-7.639,0-13.838,6.198-13.838,13.838S136.11,83.8,143.749,83.8h311.355V56.125H143.749z" style="fill: rgb(75, 75, 75);"></path>
</g>
</svg>
