<!--?xml version="1.0" encoding="utf-8"?-->
<!-- Generator: Adobe Illustrator 18.1.1, SVG Export Plug-In . SVG Version: 6.00 Build 0)  -->

<svg version="1.1" id="_x32_" xmlns="http://www.w3.org/2000/svg" xmlns:xlink="http://www.w3.org/1999/xlink" x="0px" y="0px" viewBox="0 0 512 512" style="width: 32px; height: 32px; opacity: 1;" xml:space="preserve">
<style type="text/css">
	.st0{fill:#4B4B4B;}
</style>
<g>
	<path class="st0" d="M497.753,215.156l-71.457-109.364c-11.07-16.928-29.93-27.152-50.169-27.152H135.872
		c-20.239,0-39.099,10.224-50.169,27.144L14.246,215.156C4.958,229.38,0,246.015,0,263.018v112.248
		c0,15.984,6.531,30.62,17.017,41.077c10.457,10.486,25.092,17.025,41.077,17.017h395.812c15.984,0.008,30.62-6.531,41.076-17.017
		C505.468,405.886,512,391.251,512,375.266V263.018C512,246.015,507.041,229.38,497.753,215.156z M322.857,247.266l-1.588,4.884
		c-8.913,27.556-34.74,47.54-65.27,47.525c-30.53,0.015-56.371-19.969-65.27-47.525l-1.588-4.884H37.795
		c1.423-4.494,3.401-8.816,6.007-12.808l71.441-109.357c4.554-6.966,12.314-11.168,20.628-11.168h240.255
		c8.314,0,16.074,4.202,20.628,11.168l71.441,109.357c2.607,3.992,4.584,8.314,6.007,12.808H322.857z" style="fill: rgb(75, 75, 75);"></path>
</g>
</svg>
